# xmcd CD database file
#
# Track frame offsets:
#	150
#	7142
#	9782
#	10672
#	20085
#	27647
#	34885
#	43222
#	50962
#	58075
#	65582
#	72227
#	79315
#	86030
#	86870
#	95910
#	102482
#	111442
#	121595
#	129002
#	136900
#	148272
#	154742
#	157387
#	163575
#	177077
#	179712
#	186722
#	191217
#	194092
#	206907
#
# Disc length: 2870 seconds
#
# Revision: 2
# Processed by: cddbd v1.5.2PL0 Copyright (c) Steve Scherf et al.
# Submitted via: CDex 1.70beta2
#
DISCID=e30b341f
DTITLE=Digimon Adventure 02 Uta to Ongaku Shuu Ver. 1 - Digimon Adventure 02 Uta to Ongaku Shuu Ver. 1
DYEAR=2008
DGENRE=Salsa
TTITLE0=Target Akai Shougeki TV Size
TTITLE1=Aban 02
TTITLE2=Subtitle 02
TTITLE3=Adventure Heart Daisuke no Theme
TTITLE4=Dancin' On the Sky Miyako no Theme
TTITLE5=Power of Earth Iori no Theme
TTITLE6=Happy Friends Takeru no Theme
TTITLE7=Sunshine Smile Hikari no Theme
TTITLE8=Tanoshii Houkago
TTITLE9=Saa, Digital World e Ikou!
TTITLE10=Zukkoke, Okkake, Oosawagi!?
TTITLE11=Ken-chan... Wormmon no Theme
TTITLE12=Teki no Wana Da,, Ki wo Tsukero!
TTITLE13=Eye Catch 02
TTITLE14=Gekitotsu!!
TTITLE15=Aku no Butai ga Yatte Kita
TTITLE16=Break Up! TV Size
TTITLE17=Kurihirogau Battle
TTITLE18=Ankoku no Hohoemi Digimon Kaizer no Theme
TTITLE19=Ie ni Kaerou Target Instruments
TTITLE20=Dream World
TTITLE21=Ashita wa Atashi no Kaze ga Fuku  TV Size
TTITLE22=Yokoku 02
TTITLE23=Our War Game! Soundtrack Tanomoshii Nakamatachi
TTITLE24=Our War Game! Soundtrack Konran
TTITLE25=Our War Game! Soundtrack Shutsugeki!!
TTITLE26=Our War Game! Soundtrack Shizuka na Fuan
TTITLE27=Our War Game! Soundtrack Furi na Tatakai
TTITLE28=Our War Game! Soundtrack Kiseki
TTITLE29=Our War Game! Soundtrack Requiem
TTITLE30=Our War Game! Soundtrack Sakuhin 2  Haru I Chouchou Bokura no War Game!
EXTD=YEAR: 2008
EXTT0=
EXTT1=
EXTT2=
EXTT3=
EXTT4=
EXTT5=
EXTT6=
EXTT7=
EXTT8=
EXTT9=
EXTT10=
EXTT11=
EXTT12=
EXTT13=
EXTT14=
EXTT15=
EXTT16=
EXTT17=
EXTT18=
EXTT19=
EXTT20=
EXTT21=
EXTT22=
EXTT23=
EXTT24=
EXTT25=
EXTT26=
EXTT27=
EXTT28=
EXTT29=
EXTT30=
PLAYORDER=
